<svg version="1.0" xmlns="http://www.w3.org/2000/svg"
 width="300.000000pt" height="300.000000pt" viewBox="0 0 300.000000 300.000000"
 preserveAspectRatio="xMidYMid meet">
<g transform="translate(0.000000,300.000000) scale(0.100000,-0.100000)"
fill="lightgrey" stroke="none" stroke-width="2">
<path d="M1112 2520 c-57 -35 -62 -63 -62 -312 1 -152 5 -232 13 -250 18 -40
343 -423 373 -439 34 -18 94 -17 128 0 31 17 362 409 376 446 6 15 10 125 10
246 0 246 -6 275 -62 309 -31 19 -50 20 -388 20 -338 0 -357 -1 -388 -20z
m725 -12 c17 -5 43 -22 57 -39 l26 -31 0 -219 c0 -167 -3 -227 -14 -252 -8
-18 -45 -68 -83 -113 -37 -44 -103 -123 -147 -175 -43 -52 -90 -104 -104 -116
-64 -54 -122 -35 -203 64 -29 36 -58 71 -64 77 -33 34 -204 244 -214 263 -7
14 -11 97 -11 246 0 325 -25 307 415 305 170 0 324 -5 342 -10z" fill="lightgrey"/>
</g>

<g transform="translate(290.000000,310.000000) scale(0.100000,-0.100000) rotate(90)"
fill="lightgrey" stroke="none" stroke-width="2">
<path d="M1112 2520 c-57 -35 -62 -63 -62 -312 1 -152 5 -232 13 -250 18 -40
343 -423 373 -439 34 -18 94 -17 128 0 31 17 362 409 376 446 6 15 10 125 10
246 0 246 -6 275 -62 309 -31 19 -50 20 -388 20 -338 0 -357 -1 -388 -20z
m725 -12 c17 -5 43 -22 57 -39 l26 -31 0 -219 c0 -167 -3 -227 -14 -252 -8
-18 -45 -68 -83 -113 -37 -44 -103 -123 -147 -175 -43 -52 -90 -104 -104 -116
-64 -54 -122 -35 -203 64 -29 36 -58 71 -64 77 -33 34 -204 244 -214 263 -7
14 -11 97 -11 246 0 325 -25 307 415 305 170 0 324 -5 342 -10z" fill="lightgrey"/>
</g>

<g transform="translate(10.000000,10.000000) scale(0.100000,-0.100000) rotate(-90)"
fill="lightgrey" stroke="none" stroke-width="2">
<path d="M1112 2520 c-57 -35 -62 -63 -62 -312 1 -152 5 -232 13 -250 18 -40
343 -423 373 -439 34 -18 94 -17 128 0 31 17 362 409 376 446 6 15 10 125 10
246 0 246 -6 275 -62 309 -31 19 -50 20 -388 20 -338 0 -357 -1 -388 -20z
m725 -12 c17 -5 43 -22 57 -39 l26 -31 0 -219 c0 -167 -3 -227 -14 -252 -8
-18 -45 -68 -83 -113 -37 -44 -103 -123 -147 -175 -43 -52 -90 -104 -104 -116
-64 -54 -122 -35 -203 64 -29 36 -58 71 -64 77 -33 34 -204 244 -214 263 -7
14 -11 97 -11 246 0 325 -25 307 415 305 170 0 324 -5 342 -10z" fill="lightgrey"/>
</g>

<g transform="translate(300.000000,20.000000) scale(0.100000,-0.100000) rotate(-180)"
fill="#FF5252" stroke="#FF5252" stroke-width="40">
<path d="M1112 2520 c-57 -35 -62 -63 -62 -312 1 -152 5 -232 13 -250 18 -40
343 -423 373 -439 34 -18 94 -17 128 0 31 17 362 409 376 446 6 15 10 125 10
246 0 246 -6 275 -62 309 -31 19 -50 20 -388 20 -338 0 -357 -1 -388 -20z
m725 -12 c17 -5 43 -22 57 -39 l26 -31 0 -219 c0 -167 -3 -227 -14 -252 -8
-18 -45 -68 -83 -113 -37 -44 -103 -123 -147 -175 -43 -52 -90 -104 -104 -116
-64 -54 -122 -35 -203 64 -29 36 -58 71 -64 77 -33 34 -204 244 -214 263 -7
14 -11 97 -11 246 0 325 -25 307 415 305 170 0 324 -5 342 -10z" fill="#FF5252"/>
</g>
</svg>
